HIERARCHY
ROOT Hips
{
  OFFSET 12.3755 98.1547 122.955
  CHANNELS 6 Xposition Yposition Zposition Zrotation Xrotation Yrotation
  JOINT RightUpLeg
  {
    OFFSET -8.9458 -8.66707 0.101652
    CHANNELS 3 Zrotation Xrotation Yrotation
    JOINT RightLeg
    {
      OFFSET 0 -44.4227 1.3727
      CHANNELS 3 Zrotation Xrotation Yrotation
      JOINT RightFoot
      {
        OFFSET 0.253549 -42.0924 -1.46059
        CHANNELS 3 Zrotation Xrotation Yrotation
        JOINT RightToes
        {
          OFFSET 0.04 -4.41509 8.4991
          CHANNELS 3 Zrotation Xrotation Yrotation
          End Site
          {
            OFFSET -0.08 -0.137448 9.77979
          }
        }
      }
    }
  }
  JOINT Spine
  {
    OFFSET 0 11.8905 0
    CHANNELS 3 Zrotation Xrotation Yrotation
    JOINT Spine1
    {
      OFFSET 0 25.6574 0.127663
      CHANNELS 3 Zrotation Xrotation Yrotation
      JOINT HEad
      {
        OFFSET 0 8.73416 0.011341
        CHANNELS 3 Zrotation Xrotation Yrotation
        End Site
        {
          OFFSET -0.29 12.7742 2.51395
        }
      }
      JOINT LeftShoulder1
      {
        OFFSET 8.99 -0.362252 -0.22
        CHANNELS 3 Zrotation Xrotation Yrotation
        JOINT LeftArm
        {
          OFFSET 10.2827 -0.00338 0.322123
          CHANNELS 3 Zrotation Xrotation Yrotation
          JOINT LeftForeArm
          {
            OFFSET 32.7669 0.099144 -1.42434
            CHANNELS 3 Zrotation Xrotation Yrotation
            JOINT LeftHand
            {
              OFFSET 27.5643 0.085362 1.02216
              CHANNELS 3 Zrotation Xrotation Yrotation
              End Site
              {
                OFFSET 16.7443 -0.6 1.50291
              }
            }
          }
        }
      }
      JOINT RightShoulder
      {
        OFFSET -8.99 -0.362252 -0.22
        CHANNELS 3 Zrotation Xrotation Yrotation
        JOINT RightArm
        {
          OFFSET -10.2827 -0.00338 0.322123
          CHANNELS 3 Zrotation Xrotation Yrotation
          JOINT RightForeArm
          {
            OFFSET -32.8971 0.099144 -1.42434
            CHANNELS 3 Zrotation Xrotation Yrotation
            JOINT RightHand
            {
              OFFSET -27.4921 0.085362 1.02216
              CHANNELS 3 Zrotation Xrotation Yrotation
              End Site
              {
                OFFSET -16.6312 -0.6 1.50291
              }
            }
          }
        }
      }
    }
  }
  JOINT LeftUpLeg
  {
    OFFSET 8.9458 -8.66707 0.101652
    CHANNELS 3 Zrotation Xrotation Yrotation
    JOINT LeftLeg
    {
      OFFSET 0 -44.4227 1.3727
      CHANNELS 3 Zrotation Xrotation Yrotation
      JOINT LeftFoot
      {
        OFFSET -0.253549 -42.0924 -1.46059
        CHANNELS 3 Zrotation Xrotation Yrotation
        JOINT LeftToes
        {
          OFFSET -0.04 -4.41509 8.4991
          CHANNELS 3 Zrotation Xrotation Yrotation
          End Site
          {
            OFFSET 0.08 -0.047448 9.77979
          }
        }
      }
    }
  }
}
MOTION
Frames:	12
Frame Time:	0.0166667
7.33768 96.7465 -55.2476 1.15109 2.97525 177.152 4.515 3.41463 -5.83258 -12.6266 40.3599 9.61016 5.0339 -2.2396 -0.250229 -0.155205 -0.69819 0.416249 4.40427 2.16186 -0.636439 -1.63211 7.74685 0.131494 -4.17398 -3.92022 13.6745 -3.47873e-016 7.95139e-016 -3.97569e-016 -83.0334 -42.1521 2.39007 -28.3278 12.5355 -6.28292 0.368473 9.90896 -0.00117927 -12.6827 -0.257393 6.22285 105.744 -22.9986 19.1371 15.4435 14.139 16.1815 -0.369625 9.91382 0.00119887 1.36458 -21.7062 -3.18439 -2.4629 18.8642 8.62266 -4.711 0.598727 0.205251 -5.46298 5.52112 -2.27292 
7.0066 96.9238 -56.8809 0.33337 3.23753 177.606 3.1533 2.42758 -5.58393 -12.5474 43.6666 9.05106 5.46315 1.56052 -0.410389 -0.43486 -1.836 0.0406641 3.78672 2.21812 -0.810082 -2.56998 8.46275 0.203024 -4.04783 -4.2839 13.2466 4.96962e-017 -1.59028e-015 -0 -83.8364 -41.3819 0.417985 -27.9955 12.6206 -6.55983 0.368473 9.90896 -0.00117927 -12.5679 -0.243299 6.05331 106.176 -23.5683 18.3672 15.2833 14.0417 15.7275 -0.369625 9.91382 0.00119887 0.0551691 -20.8169 -3.87602 -2.64575 19.6649 8.68657 -5.2158 -0.934647 0.162297 -5.63287 5.10049 -2.44691 
6.68412 97.1341 -58.4678 -0.440994 3.40269 177.956 1.90965 0.871601 -5.74716 -13.1573 47.2497 8.82774 5.37682 5.18004 -0.556087 -0.90589 -4.00123 -0.646 3.10142 2.33751 -0.930612 -3.36179 9.01183 0.272107 -3.96957 -4.41921 12.8504 1.49089e-016 -3.18055e-015 1.19271e-015 -84.5892 -40.484 -1.4213 -27.7456 12.7954 -7.22012 0.368473 9.90896 -0.00117927 -12.4666 -0.224191 5.61802 106.378 -23.7807 17.6007 15.3223 13.9738 15.1545 -0.369625 9.91382 0.00119887 -1.15132 -19.6838 -4.72553 -2.84686 19.7949 9.03189 -5.31728 -1.99206 0.119703 -5.58148 5.21239 -2.39665 
6.37761 97.3253 -60.0055 -1.1728 3.46205 178.196 0.841643 -1.14831 -6.12921 -14.44 50.9323 9.13345 5.10792 8.44124 -0.67829 -1.07747 -6.39361 -1.11825 2.33085 2.48954 -0.993947 -4.00481 9.4295 0.33061 -3.90051 -4.47904 12.5252 1.49089e-016 -3.18055e-015 -0 -85.2626 -39.4329 -3.1667 -27.6121 13.0246 -8.11531 0.368473 9.90896 -0.00117927 -12.3484 -0.20352 5.14695 106.349 -23.8255 16.8339 15.506 13.9366 14.5982 -0.369625 9.91382 0.00119887 -2.2181 -18.5927 -5.466 -3.07688 19.7536 9.46104 -5.28614 -2.96118 0.0749058 -5.46392 5.3609 -2.30177 
6.09141 97.4217 -61.4834 -1.86963 3.35481 178.258 0.0751011 -3.63867 -6.79465 -17.0786 54.5133 10.8778 4.84222 11.1518 -0.75283 -0.177399 -8.71043 -0.784021 1.38034 2.67235 -0.967978 -4.44281 9.66762 0.365598 -3.81353 -4.54781 12.3439 -4.96962e-017 0 -0 -85.7873 -38.2285 -4.72569 -27.6936 13.2918 -9.17955 0.368473 9.90896 -0.00117927 -12.1904 -0.185217 4.86461 105.972 -23.8417 16.0377 15.8502 13.948 14.1894 -0.369625 9.91382 0.00119887 -3.11793 -17.9274 -5.9259 -3.43797 20.1147 9.9806 -5.26165 -4.23038 0.0206463 -5.35894 5.10769 -2.28871 
5.83425 97.4909 -62.9352 -2.44704 3.13945 178.242 -0.464327 -6.40097 -7.30802 -20.2714 57.8251 12.8861 4.56481 12.8484 -0.781875 1.14121 -10.0787 -0.0442373 0.486235 2.83616 -0.909603 -4.74031 9.76374 0.386925 -3.69617 -4.62367 12.2357 4.96962e-017 3.18055e-015 -3.97569e-016 -86.1728 -36.9018 -6.25298 -27.8468 13.5573 -10.2476 0.368473 9.90896 -0.00117927 -11.9518 -0.163753 4.66211 105.404 -23.8146 15.2766 16.2688 13.9811 13.8664 -0.369625 9.91382 0.00119887 -3.81448 -17.4252 -6.15927 -3.82983 20.5351 10.3853 -5.21882 -5.46653 -0.0320927 -5.33973 4.90781 -2.31462 
5.61923 97.5805 -64.394 -2.81479 2.83265 178.218 -0.670822 -9.28568 -7.09039 -22.67 60.7944 13.3357 4.30132 12.67 -0.743879 2.3986 -8.90857 1.00185 -0.104138 2.919 -0.872617 -4.97009 9.70271 0.403055 -3.51355 -4.75267 12.1575 7.45443e-016 1.59028e-015 -3.97569e-016 -86.3409 -35.4433 -7.8557 -27.9803 13.7821 -11.125 0.368473 9.90896 -0.00117927 -11.5375 -0.131692 4.50008 104.724 -23.7466 14.6213 16.6933 14.0121 13.5973 -0.369625 9.91382 0.00119887 -4.23963 -16.9496 -6.17612 -4.1734 20.8161 10.444 -5.17329 -6.38411 -0.0707267 -5.58459 5.19946 -2.39986 
5.43759 97.6748 -65.8499 -3.00051 2.49892 178.202 -0.570071 -12.2019 -6.58803 -24.3051 63.2457 13.1787 4.13379 11.6176 -0.685121 3.3818 -7.04136 1.98029 -0.515595 2.95551 -0.834311 -5.05294 9.59437 0.405528 -3.30807 -4.87559 12.0996 -6.4605e-016 0 -1.19271e-015 -86.4464 -33.9483 -9.56363 -28.0675 13.9644 -11.8269 0.368473 9.90896 -0.00117927 -11.0866 -0.0986217 4.39442 104.03 -23.7327 14.0197 17.0822 14.0466 13.4252 -0.369625 9.91382 0.00119887 -4.42307 -16.5027 -5.92643 -4.46163 21.1124 10.223 -5.13615 -7.2286 -0.106833 -5.85504 5.59463 -2.48109 
5.28808 97.7763 -67.3016 -2.95455 2.19098 178.231 -0.181843 -15.0338 -6.04283 -25.145 64.9079 13.2502 4.24025 10.4935 -0.659305 3.69973 -6.05501 2.34391 -0.762735 2.95653 -0.7837 -4.87031 9.51378 0.38245 -3.1196 -4.92273 12.0473 -1.49089e-016 -1.59028e-015 7.95139e-016 -86.6617 -32.5207 -11.4798 -28.0407 14.0681 -12.2206 0.368473 9.90896 -0.00117927 -10.7382 -0.0740899 4.38576 103.451 -23.909 13.4162 17.3608 14.0845 13.4128 -0.369625 9.91382 0.00119887 -4.30724 -16.0775 -5.29996 -4.66347 21.5556 9.68444 -5.14917 -8.17133 -0.150196 -5.89802 5.82958 -2.46134 
5.16112 97.8771 -68.7563 -2.81496 1.96089 178.308 0.34832 -17.6742 -5.4865 -25.1397 65.8775 12.9716 4.36015 9.03341 -0.625009 3.88129 -5.15897 2.58169 -0.929119 2.93149 -0.739412 -4.61378 9.55021 0.352696 -2.92051 -4.9715 11.9723 3.97569e-016 -1.59028e-015 3.97569e-016 -86.8782 -31.1073 -13.5013 -27.9343 14.1587 -12.5552 0.368473 9.90896 -0.00117927 -10.3971 -0.0508034 4.36055 102.951 -24.1559 12.8841 17.5593 14.1182 13.4693 -0.369625 9.91382 0.00119887 -4.09078 -15.5581 -4.48882 -4.76668 22.0091 8.90903 -5.14033 -9.14915 -0.194045 -5.94398 5.97015 -2.46046 
5.04777 97.9674 -70.2222 -2.71744 1.90448 178.467 0.806041 -19.951 -5.0242 -24.1265 66.1829 12.0193 4.24247 7.16319 -0.548768 4.39848 -3.92446 3.10059 -1.10775 2.89032 -0.723558 -4.46921 9.88582 0.335286 -2.69123 -5.11902 11.834 -4.96962e-016 1.59028e-015 7.95139e-016 -87.0549 -29.6701 -15.5995 -27.7421 14.2975 -13.0826 0.368473 9.90896 -0.00117927 -9.99568 -0.0229686 4.18363 102.575 -24.3875 12.5165 17.6691 14.1366 13.5126 -0.369625 9.91382 0.00119887 -3.972 -14.8091 -3.54259 -4.71286 22.4016 7.83591 -5.02183 -10.203 -0.235788 -6.18682 5.93044 -2.6066 
4.94491 98.055 -71.6954 -2.62198 1.9433 178.654 1.2507 -21.9351 -4.7026 -22.4926 65.7373 10.5683 4.04798 5.11483 -0.46217 4.88288 -2.84241 3.58396 -1.2852 2.84247 -0.714686 -4.33418 10.3171 0.317754 -2.44964 -5.23692 11.6543 -1.98785e-016 0 3.97569e-016 -87.186 -28.2859 -17.6716 -27.4997 14.4503 -13.6667 0.368473 9.90896 -0.00117927 -9.59006 0.00443441 3.96057 102.234 -24.638 12.2062 17.7321 14.1493 13.5791 -0.369625 9.91382 0.00119887 -3.90219 -13.8886 -2.7815 -4.6365 22.6624 6.85977 -4.88158 -11.192 -0.272544 -6.47962 5.90165 -2.77826 
